<svg width="29" height="24" viewBox="0 0 29 24" fill="none" xmlns="http://www.w3.org/2000/svg">
<path d="M23.444 3.36125C21.8292 2.56162 20.0982 1.9706 18.2881 1.63452C18.272 1.63112 18.2553 1.63331 18.2404 1.64079C18.2255 1.64826 18.213 1.66065 18.2048 1.67624C17.9831 2.10387 17.7361 2.66129 17.563 3.10166C15.6433 2.78672 13.6916 2.78672 11.7718 3.10166C11.579 2.61361 11.3616 2.13774 11.1206 1.67624C11.1124 1.66046 11.1001 1.64779 11.0852 1.63992C11.0703 1.63205 11.0536 1.62936 11.0372 1.6322C9.2282 1.96828 7.49727 2.55931 5.88138 3.36009C5.86748 3.36649 5.85569 3.37741 5.8476 3.39138C2.56306 8.69325 1.66276 13.8642 2.105 18.9702C2.10623 18.9827 2.10976 18.9948 2.11539 19.0057C2.12101 19.0167 2.12861 19.0263 2.13772 19.0339C4.05482 20.5664 6.19309 21.7339 8.463 22.4874C8.47882 22.4927 8.49575 22.4927 8.51156 22.4873C8.52738 22.482 8.54135 22.4715 8.55166 22.4572C9.03927 21.7387 9.47411 20.9797 9.84563 20.1824C9.8678 20.136 9.84669 20.0804 9.80236 20.0618C9.12055 19.7799 8.45992 19.4397 7.82656 19.0443C7.81518 19.0372 7.80559 19.0271 7.79866 19.0149C7.79172 19.0027 7.78765 18.9888 7.78681 18.9744C7.78597 18.9601 7.7884 18.9457 7.79386 18.9326C7.79932 18.9195 7.80766 18.9081 7.81812 18.8995C7.95111 18.7917 8.08409 18.6793 8.21075 18.5669C8.22215 18.5568 8.23588 18.5503 8.25041 18.5483C8.26495 18.5462 8.27972 18.5487 8.29307 18.5553C12.4378 20.5996 16.9266 20.5996 21.0228 18.5553C21.0362 18.5483 21.0511 18.5455 21.0658 18.5474C21.0806 18.5492 21.0946 18.5556 21.1062 18.5657C21.2328 18.6793 21.3648 18.7917 21.4988 18.8995C21.5094 18.908 21.5178 18.9192 21.5235 18.9322C21.5291 18.9451 21.5317 18.9594 21.5311 18.9738C21.5305 18.9881 21.5266 19.0021 21.5199 19.0144C21.5131 19.0267 21.5037 19.037 21.4925 19.0443C20.8613 19.443 20.2048 19.7802 19.5156 20.0607C19.505 20.0649 19.4954 20.0715 19.4873 20.0802C19.4793 20.0888 19.473 20.0992 19.4689 20.1108C19.4648 20.1223 19.463 20.1346 19.4636 20.147C19.4642 20.1593 19.4672 20.1714 19.4723 20.1824C19.8523 20.9785 20.2872 21.7364 20.7653 22.4561C20.7752 22.4708 20.7891 22.4819 20.8049 22.4877C20.8208 22.4935 20.8379 22.4938 20.8539 22.4885C23.1277 21.7372 25.2695 20.5692 27.1887 19.0339C27.1981 19.0267 27.2059 19.0174 27.2118 19.0066C27.2176 18.9958 27.2212 18.9838 27.2225 18.9713C27.7502 13.068 26.338 7.93882 23.4767 3.3937C23.4697 3.37893 23.4581 3.36741 23.444 3.36125ZM10.4652 15.8609C9.21764 15.8609 8.18858 14.6221 8.18858 13.1028C8.18858 11.5823 9.19759 10.3446 10.4652 10.3446C11.7423 10.3446 12.7618 11.5928 12.7418 13.1028C12.7418 14.6232 11.7328 15.8609 10.4652 15.8609ZM18.8824 15.8609C17.6338 15.8609 16.6058 14.6221 16.6058 13.1028C16.6058 11.5823 17.6137 10.3446 18.8824 10.3446C20.1594 10.3446 21.179 11.5928 21.1589 13.1028C21.1589 14.6232 20.1605 15.8609 18.8824 15.8609Z" fill="#970000"/>
<path d="M7.87511 18.9666L7.87451 18.9675L7.87297 18.9657M7.87511 18.9666L7.87297 18.9657M7.87511 18.9666L7.87297 18.9657M7.87297 18.9657L7.81812 18.8995" stroke="black" stroke-opacity="0.25" stroke-width="1.49008"/>
</svg>
