<svg width="41" height="34" viewBox="0 0 41 34" fill="none" xmlns="http://www.w3.org/2000/svg">
<path d="M34.3041 3.62718C31.7481 2.36152 29.0084 1.42603 26.1433 0.894083C26.1178 0.888705 26.0914 0.892171 26.0678 0.904002C26.0441 0.915833 26.0244 0.935444 26.0114 0.960118C25.6605 1.63697 25.2696 2.51927 24.9957 3.2163C21.957 2.7178 18.8678 2.7178 15.8292 3.2163C15.524 2.44381 15.1799 1.69058 14.7985 0.960118C14.7855 0.93514 14.766 0.915086 14.7424 0.902631C14.7188 0.890177 14.6923 0.885915 14.6665 0.890415C11.8031 1.42236 9.06336 2.35785 6.5057 3.62535C6.4837 3.63548 6.46504 3.65276 6.45224 3.67487C1.2534 12.0668 -0.171599 20.2514 0.528373 28.3333C0.530321 28.3531 0.535916 28.3722 0.544819 28.3896C0.553723 28.4069 0.565747 28.4221 0.580161 28.4342C3.61459 30.8599 6.99908 32.7077 10.5919 33.9004C10.617 33.9088 10.6438 33.9088 10.6688 33.9003C10.6938 33.8918 10.716 33.8752 10.7323 33.8527C11.5041 32.7154 12.1923 31.5139 12.7804 30.2519C12.8155 30.1786 12.7821 30.0905 12.7119 30.0612C11.6327 29.6149 10.5871 29.0765 9.58458 28.4507C9.56656 28.4394 9.55138 28.4234 9.5404 28.404C9.52942 28.3847 9.52298 28.3627 9.52165 28.34C9.52033 28.3172 9.52416 28.2945 9.53281 28.2738C9.54146 28.2531 9.55466 28.2351 9.57121 28.2214C9.7817 28.0508 9.9922 27.8729 10.1927 27.6949C10.2107 27.6789 10.2324 27.6688 10.2555 27.6655C10.2785 27.6623 10.3018 27.6661 10.323 27.6766C16.8833 30.9123 23.9883 30.9123 30.4718 27.6766C30.493 27.6655 30.5166 27.6611 30.54 27.6641C30.5633 27.667 30.5854 27.677 30.6038 27.6931C30.8043 27.8729 31.0131 28.0508 31.2252 28.2214C31.242 28.2348 31.2554 28.2526 31.2643 28.2731C31.2732 28.2936 31.2774 28.3163 31.2764 28.339C31.2754 28.3617 31.2693 28.3838 31.2586 28.4033C31.2479 28.4228 31.233 28.4391 31.2152 28.4507C30.2162 29.0817 29.1771 29.6154 28.0862 30.0593C28.0695 30.066 28.0542 30.0765 28.0415 30.0902C28.0287 30.1039 28.0188 30.1204 28.0123 30.1386C28.0058 30.1568 28.0029 30.1764 28.0039 30.1959C28.0048 30.2155 28.0095 30.2346 28.0177 30.2519C28.6191 31.5121 29.3074 32.7117 30.0642 33.8508C30.0799 33.8742 30.1018 33.8917 30.127 33.9009C30.1521 33.9101 30.1792 33.9105 30.2045 33.9022C33.8035 32.7129 37.1936 30.8642 40.2313 28.4342C40.2462 28.4228 40.2586 28.4081 40.2678 28.391C40.277 28.3739 40.2828 28.3548 40.2848 28.3351C41.1201 18.9912 38.8848 10.8726 34.3559 3.67854C34.3448 3.65516 34.3264 3.63694 34.3041 3.62718ZM13.761 23.4119C11.7864 23.4119 10.1576 21.451 10.1576 19.0462C10.1576 16.6397 11.7547 14.6806 13.761 14.6806C15.7824 14.6806 17.3962 16.6562 17.3645 19.0462C17.3645 21.4528 15.7674 23.4119 13.761 23.4119ZM27.0839 23.4119C25.1076 23.4119 23.4804 21.451 23.4804 19.0462C23.4804 16.6397 25.0758 14.6806 27.0839 14.6806C29.1053 14.6806 30.7191 16.6562 30.6873 19.0462C30.6873 21.4528 29.107 23.4119 27.0839 23.4119Z" fill="#E38E74"/>
</svg>
