<svg width="29" height="24" viewBox="0 0 29 24" fill="none" xmlns="http://www.w3.org/2000/svg">
<path d="M23.444 3.36101C21.8292 2.56138 20.0982 1.97035 18.2881 1.63428C18.272 1.63088 18.2553 1.63307 18.2404 1.64054C18.2255 1.64802 18.213 1.66041 18.2048 1.676C17.9831 2.10362 17.7361 2.66104 17.563 3.10142C15.6433 2.78648 13.6916 2.78648 11.7718 3.10142C11.579 2.61337 11.3616 2.13749 11.1206 1.676C11.1124 1.66022 11.1001 1.64755 11.0852 1.63968C11.0703 1.63181 11.0536 1.62912 11.0372 1.63196C9.2282 1.96803 7.49727 2.55906 5.88138 3.35985C5.86748 3.36625 5.85569 3.37717 5.8476 3.39114C2.56306 8.693 1.66276 13.8639 2.105 18.9699C2.10623 18.9824 2.10976 18.9945 2.11539 19.0055C2.12101 19.0165 2.12861 19.026 2.13772 19.0337C4.05482 20.5662 6.19309 21.7336 8.463 22.4871C8.47882 22.4925 8.49575 22.4925 8.51156 22.4871C8.52738 22.4817 8.54135 22.4712 8.55166 22.457C9.03927 21.7385 9.47411 20.9794 9.84563 20.1821C9.8678 20.1358 9.84669 20.0801 9.80236 20.0616C9.12055 19.7797 8.45992 19.4395 7.82656 19.0441C7.81518 19.037 7.80559 19.0268 7.79866 19.0146C7.79172 19.0024 7.78765 18.9885 7.78681 18.9742C7.78597 18.9598 7.7884 18.9454 7.79386 18.9324C7.79932 18.9193 7.80766 18.9079 7.81812 18.8992C7.95111 18.7915 8.08409 18.6791 8.21075 18.5666C8.22215 18.5565 8.23588 18.5501 8.25041 18.5481C8.26495 18.546 8.27972 18.5484 8.29307 18.5551C12.4378 20.5993 16.9266 20.5993 21.0228 18.5551C21.0362 18.548 21.0511 18.5453 21.0658 18.5471C21.0806 18.549 21.0946 18.5553 21.1062 18.5655C21.2328 18.6791 21.3648 18.7915 21.4988 18.8992C21.5094 18.9077 21.5178 18.919 21.5235 18.9319C21.5291 18.9449 21.5317 18.9592 21.5311 18.9735C21.5305 18.9879 21.5266 19.0018 21.5199 19.0142C21.5131 19.0265 21.5037 19.0368 21.4925 19.0441C20.8613 19.4428 20.2048 19.78 19.5156 20.0604C19.505 20.0647 19.4954 20.0713 19.4873 20.0799C19.4793 20.0886 19.473 20.099 19.4689 20.1105C19.4648 20.122 19.463 20.1344 19.4636 20.1467C19.4642 20.1591 19.4672 20.1711 19.4723 20.1821C19.8523 20.9783 20.2872 21.7362 20.7653 22.4558C20.7752 22.4706 20.7891 22.4816 20.8049 22.4874C20.8208 22.4933 20.8379 22.4935 20.8539 22.4883C23.1277 21.7369 25.2695 20.5689 27.1887 19.0337C27.1981 19.0265 27.2059 19.0172 27.2118 19.0064C27.2176 18.9956 27.2212 18.9836 27.2225 18.9711C27.7502 13.0678 26.338 7.93857 23.4767 3.39345C23.4697 3.37868 23.4581 3.36717 23.444 3.36101ZM10.4652 15.8607C9.21764 15.8607 8.18858 14.6218 8.18858 13.1025C8.18858 11.5821 9.19759 10.3444 10.4652 10.3444C11.7423 10.3444 12.7618 11.5925 12.7418 13.1025C12.7418 14.623 11.7328 15.8607 10.4652 15.8607ZM18.8824 15.8607C17.6338 15.8607 16.6058 14.6218 16.6058 13.1025C16.6058 11.5821 17.6137 10.3444 18.8824 10.3444C20.1594 10.3444 21.179 11.5925 21.1589 13.1025C21.1589 14.623 20.1605 15.8607 18.8824 15.8607Z" fill="#8E8585"/>
<path d="M7.87511 18.9663L7.87451 18.9673L7.87297 18.9654M7.87511 18.9663L7.87297 18.9654M7.87511 18.9663L7.87297 18.9654M7.87297 18.9654L7.81812 18.8992" stroke="black" stroke-opacity="0.25" stroke-width="1.49008"/>
</svg>
