<svg width="155" height="119" viewBox="0 0 155 119" fill="none" xmlns="http://www.w3.org/2000/svg">
<mask id="path-1-outside-1_50_62" maskUnits="userSpaceOnUse" x="0" y="0" width="155" height="119" fill="black">
<rect fill="white" width="155" height="119"/>
<path d="M28.5489 54.6865L17.132 66.1229L5.71504 54.6865V25.2784L17.1972 13.8419L28.5489 25.2784V54.6865ZM17.132 20.3771L12.239 25.2784V54.6865L17.132 59.5878L22.025 54.6865V25.2784L17.132 20.3771Z"/>
<path d="M48.1208 25.2566L43.2279 20.3553L38.3349 25.2566V57.9676L31.8109 67.783L31.7792 18.7024L26.9179 13.8011H38.3349V18.7388L43.294 13.8011L51.4164 21.9809L59.6039 13.8011L70.9547 25.2494V67.7867L64.4308 57.984V25.2566L59.5378 20.3553L54.6448 25.2566V67.7867L48.1208 57.984V25.2566Z"/>
<path d="M93.8493 20.3362H80.8313L80.7987 31.7727H90.5266V41.6661L87.2864 38.3986H80.7407V51.4688L93.8158 51.4361L97.0506 48.2339V58.0039H80.7507L74.2167 67.8066L74.1841 18.727L69.3174 13.8011H97.0506L97.0832 23.6528L93.8493 20.3362Z"/>
<path d="M106.837 57.9676L100.313 67.783L100.28 18.7061L95.4196 13.8011H106.837V18.7388L111.796 13.8011L123.146 25.2494V67.7867L116.623 57.984V25.2566L111.73 20.3553L106.837 25.2566V57.9676Z"/>
<path d="M149.242 54.6665L137.825 66.1175L126.408 54.6665V46.5675H141.087L136.194 51.4688L134.563 49.835H132.932V54.7364L137.825 59.6377L142.718 54.7364V43.2999H126.408V25.302L137.891 13.851L149.242 25.302V28.5342L141.087 33.4355V30.168L142.718 28.5342V25.2203L137.825 20.3126L132.932 25.2203V36.674H149.242V54.6665Z"/>
<path d="M18.3552 14.932L17.2153 13.7839L2 3L5.71866 25.2348H7.49373L17.2153 15.7762"/>
<path d="M137.917 15.5075L147.813 25.2594L149.291 28.5315L153 3.02451L137.917 13.8365V15.5075Z"/>
<path d="M59.1753 83.3584L55.5509 79.7105L51.9265 83.3584V90.5888H46.3992V81.5395L55.5056 72.4257L64.612 81.5395V118H46.3992V105.237L55.5065 96.1255H59.1753V83.3584ZM59.1753 112.554V101.571H57.3631L51.9265 107.063V112.554H59.1753Z"/>
<path d="M80.9219 83.3584L77.2975 79.7105L73.6731 83.3584V90.5888H68.2364V81.5395L77.3428 72.4257L86.4492 81.5395V118H68.2364V105.237L77.3437 96.1255H80.9219V83.3584ZM80.9219 112.554V101.571H79.1097L73.6731 107.063V112.554H80.9219Z"/>
<path d="M102.759 83.3584L99.0894 79.7105L95.4196 83.3584V90.5888H89.983V81.5395L99.0894 72.4257L108.196 81.5395V118H89.983V105.237L99.0903 96.1255H102.759V83.3584ZM102.759 112.551V101.571H100.947L95.5102 107.063V112.554L102.759 112.551Z"/>
</mask>
<path d="M28.5489 54.6865L17.132 66.1229L5.71504 54.6865V25.2784L17.1972 13.8419L28.5489 25.2784V54.6865ZM17.132 20.3771L12.239 25.2784V54.6865L17.132 59.5878L22.025 54.6865V25.2784L17.132 20.3771Z" fill="#970000"/>
<path d="M48.1208 25.2566L43.2279 20.3553L38.3349 25.2566V57.9676L31.8109 67.783L31.7792 18.7024L26.9179 13.8011H38.3349V18.7388L43.294 13.8011L51.4164 21.9809L59.6039 13.8011L70.9547 25.2494V67.7867L64.4308 57.984V25.2566L59.5378 20.3553L54.6448 25.2566V67.7867L48.1208 57.984V25.2566Z" fill="#970000"/>
<path d="M93.8493 20.3362H80.8313L80.7987 31.7727H90.5266V41.6661L87.2864 38.3986H80.7407V51.4688L93.8158 51.4361L97.0506 48.2339V58.0039H80.7507L74.2167 67.8066L74.1841 18.727L69.3174 13.8011H97.0506L97.0832 23.6528L93.8493 20.3362Z" fill="#970000"/>
<path d="M106.837 57.9676L100.313 67.783L100.28 18.7061L95.4196 13.8011H106.837V18.7388L111.796 13.8011L123.146 25.2494V67.7867L116.623 57.984V25.2566L111.73 20.3553L106.837 25.2566V57.9676Z" fill="#970000"/>
<path d="M149.242 54.6665L137.825 66.1175L126.408 54.6665V46.5675H141.087L136.194 51.4688L134.563 49.835H132.932V54.7364L137.825 59.6377L142.718 54.7364V43.2999H126.408V25.302L137.891 13.851L149.242 25.302V28.5342L141.087 33.4355V30.168L142.718 28.5342V25.2203L137.825 20.3126L132.932 25.2203V36.674H149.242V54.6665Z" fill="#970000"/>
<path d="M18.3552 14.932L17.2153 13.7839L2 3L5.71866 25.2348H7.49373L17.2153 15.7762" fill="#970000"/>
<path d="M137.917 15.5075L147.813 25.2594L149.291 28.5315L153 3.02451L137.917 13.8365V15.5075Z" fill="#970000"/>
<path d="M59.1753 83.3584L55.5509 79.7105L51.9265 83.3584V90.5888H46.3992V81.5395L55.5056 72.4257L64.612 81.5395V118H46.3992V105.237L55.5065 96.1255H59.1753V83.3584ZM59.1753 112.554V101.571H57.3631L51.9265 107.063V112.554H59.1753Z" fill="#970000"/>
<path d="M80.9219 83.3584L77.2975 79.7105L73.6731 83.3584V90.5888H68.2364V81.5395L77.3428 72.4257L86.4492 81.5395V118H68.2364V105.237L77.3437 96.1255H80.9219V83.3584ZM80.9219 112.554V101.571H79.1097L73.6731 107.063V112.554H80.9219Z" fill="#970000"/>
<path d="M102.759 83.3584L99.0894 79.7105L95.4196 83.3584V90.5888H89.983V81.5395L99.0894 72.4257L108.196 81.5395V118H89.983V105.237L99.0903 96.1255H102.759V83.3584ZM102.759 112.551V101.571H100.947L95.5102 107.063V112.554L102.759 112.551Z" fill="#970000"/>
<path d="M28.5489 54.6865L29.2566 55.393L29.5489 55.1002V54.6865H28.5489ZM17.132 66.1229L16.4243 66.8294L17.132 67.5384L17.8397 66.8294L17.132 66.1229ZM5.71504 54.6865H4.71504V55.1002L5.00733 55.393L5.71504 54.6865ZM5.71504 25.2784L5.00934 24.5699L4.71504 24.863V25.2784H5.71504ZM17.1972 13.8419L17.907 13.1375L17.2013 12.4265L16.4915 13.1334L17.1972 13.8419ZM28.5489 25.2784H29.5489V24.8664L29.2587 24.5739L28.5489 25.2784ZM17.132 20.3771L17.8397 19.6706L17.132 18.9616L16.4243 19.6706L17.132 20.3771ZM12.239 25.2784L11.5313 24.5719L11.239 24.8647V25.2784H12.239ZM12.239 54.6865H11.239V55.1002L11.5313 55.393L12.239 54.6865ZM17.132 59.5878L16.4243 60.2943L17.132 61.0032L17.8397 60.2943L17.132 59.5878ZM22.025 54.6865L22.7327 55.393L23.025 55.1002V54.6865H22.025ZM22.025 25.2784H23.025V24.8647L22.7327 24.5719L22.025 25.2784ZM48.1208 25.2566H49.1208V24.8429L48.8286 24.5501L48.1208 25.2566ZM43.2279 20.3553L43.9356 19.6488L43.2279 18.9399L42.5202 19.6488L43.2279 20.3553ZM38.3349 25.2566L37.6272 24.5501L37.3349 24.8429V25.2566H38.3349ZM38.3349 57.9676L39.1677 58.5212L39.3349 58.2697V57.9676H38.3349ZM31.8109 67.783L30.8109 67.7837L30.8131 71.0909L32.6437 68.3366L31.8109 67.783ZM31.7792 18.7024L32.7792 18.7018L32.7789 18.2904L32.4892 17.9982L31.7792 18.7024ZM26.9179 13.8011V12.8011H24.5177L26.2079 14.5053L26.9179 13.8011ZM38.3349 13.8011H39.3349V12.8011H38.3349V13.8011ZM38.3349 18.7388H37.3349V21.1456L39.0405 19.4474L38.3349 18.7388ZM43.294 13.8011L44.0036 13.0965L43.298 12.3859L42.5884 13.0925L43.294 13.8011ZM51.4164 21.9809L50.7068 22.6855L51.4135 23.3973L52.1231 22.6883L51.4164 21.9809ZM59.6039 13.8011L60.3141 13.097L59.6073 12.3842L58.8972 13.0937L59.6039 13.8011ZM70.9547 25.2494H71.9547V24.8377L71.6649 24.5453L70.9547 25.2494ZM70.9547 67.7867L70.1222 68.3407L71.9547 71.0941V67.7867H70.9547ZM64.4308 57.984H63.4308V58.2863L63.5983 58.538L64.4308 57.984ZM64.4308 25.2566H65.4308V24.8429L65.1385 24.5501L64.4308 25.2566ZM59.5378 20.3553L60.2455 19.6488L59.5378 18.9399L58.8301 19.6488L59.5378 20.3553ZM54.6448 25.2566L53.9371 24.5501L53.6448 24.8429V25.2566H54.6448ZM54.6448 67.7867L53.8123 68.3407L55.6448 71.0941V67.7867H54.6448ZM48.1208 57.984H47.1208V58.2863L47.2884 58.538L48.1208 57.984ZM93.8493 20.3362L94.5653 19.6381L94.271 19.3362H93.8493V20.3362ZM80.8313 20.3362V19.3362H79.8342L79.8313 20.3334L80.8313 20.3362ZM80.7987 31.7727L79.7987 31.7698L79.7958 32.7727H80.7987V31.7727ZM90.5266 31.7727H91.5266V30.7727H90.5266V31.7727ZM90.5266 41.6661L89.8166 42.3703L91.5266 44.0948V41.6661H90.5266ZM87.2864 38.3986L87.9965 37.6944L87.7031 37.3986H87.2864V38.3986ZM80.7407 38.3986V37.3986H79.7407V38.3986H80.7407ZM80.7407 51.4688H79.7407V52.4713L80.7432 52.4688L80.7407 51.4688ZM93.8158 51.4361L93.8183 52.4361L94.2281 52.4351L94.5193 52.1468L93.8158 51.4361ZM97.0506 48.2339H98.0506V45.8369L96.3471 47.5233L97.0506 48.2339ZM97.0506 58.0039V59.0039H98.0506V58.0039H97.0506ZM80.7507 58.0039V57.0039H80.2154L79.9186 57.4493L80.7507 58.0039ZM74.2167 67.8066L73.2167 67.8073L73.2189 71.1066L75.0488 68.3613L74.2167 67.8066ZM74.1841 18.727L75.1841 18.7263L75.1838 18.316L74.8955 18.0241L74.1841 18.727ZM69.3174 13.8011V12.8011H66.9237L68.606 14.5039L69.3174 13.8011ZM97.0506 13.8011L98.0506 13.7978L98.0473 12.8011H97.0506V13.8011ZM97.0832 23.6528L96.3673 24.3509L98.0914 26.1192L98.0832 23.6495L97.0832 23.6528ZM106.837 57.9676L107.669 58.5212L107.837 58.2697V57.9676H106.837ZM100.313 67.783L99.3126 67.7837L99.3148 71.0908L101.145 68.3366L100.313 67.783ZM100.28 18.7061L101.28 18.7054L101.28 18.2943L100.99 18.0022L100.28 18.7061ZM95.4196 13.8011V12.8011H93.0209L94.7093 14.505L95.4196 13.8011ZM106.837 13.8011H107.837V12.8011H106.837V13.8011ZM106.837 18.7388H105.837V21.1456L107.542 19.4474L106.837 18.7388ZM111.796 13.8011L112.506 13.097L111.8 12.3854L111.09 13.0925L111.796 13.8011ZM123.146 25.2494H124.146V24.8377L123.857 24.5453L123.146 25.2494ZM123.146 67.7867L122.314 68.3407L124.146 71.0941V67.7867H123.146ZM116.623 57.984H115.623V58.2863L115.79 58.538L116.623 57.984ZM116.623 25.2566H117.623V24.8429L117.33 24.5501L116.623 25.2566ZM111.73 20.3553L112.437 19.6488L111.73 18.9399L111.022 19.6488L111.73 20.3553ZM106.837 25.2566L106.129 24.5501L105.837 24.8429V25.2566H106.837ZM149.242 54.6665L149.951 55.3725L150.242 55.0798V54.6665H149.242ZM137.825 66.1175L137.117 66.8235L137.825 67.5338L138.534 66.8235L137.825 66.1175ZM126.408 54.6665H125.408V55.0798L125.7 55.3725L126.408 54.6665ZM126.408 46.5675V45.5675H125.408V46.5675H126.408ZM141.087 46.5675L141.795 47.274L143.499 45.5675H141.087V46.5675ZM136.194 51.4688L135.487 52.1753L136.194 52.8842L136.902 52.1753L136.194 51.4688ZM134.563 49.835L135.271 49.1285L134.978 48.835H134.563V49.835ZM132.932 49.835V48.835H131.932V49.835H132.932ZM132.932 54.7364H131.932V55.1501L132.225 55.4429L132.932 54.7364ZM137.825 59.6377L137.118 60.3442L137.825 61.0532L138.533 60.3442L137.825 59.6377ZM142.718 54.7364L143.426 55.4429L143.718 55.1501V54.7364H142.718ZM142.718 43.2999H143.718V42.2999H142.718V43.2999ZM126.408 43.2999H125.408V44.2999H126.408V43.2999ZM126.408 25.302L125.702 24.5939L125.408 24.887V25.302H126.408ZM137.891 13.851L138.601 13.147L137.895 12.4347L137.185 13.143L137.891 13.851ZM149.242 25.302H150.242V24.8903L149.953 24.598L149.242 25.302ZM149.242 28.5342L149.758 29.3913L150.242 29.0999V28.5342H149.242ZM141.087 33.4355H140.087V35.2033L141.603 34.2926L141.087 33.4355ZM141.087 30.168L140.38 29.4615L140.087 29.7542V30.168H141.087ZM142.718 28.5342L143.426 29.2407L143.718 28.9479V28.5342H142.718ZM142.718 25.2203H143.718V24.807L143.427 24.5143L142.718 25.2203ZM137.825 20.3126L138.534 19.6066L137.825 18.8963L137.117 19.6066L137.825 20.3126ZM132.932 25.2203L132.224 24.5143L131.932 24.807V25.2203H132.932ZM132.932 36.674H131.932V37.674H132.932V36.674ZM149.242 36.674H150.242V35.674H149.242V36.674ZM17.6456 15.6366C18.0347 16.0285 18.6678 16.0308 19.0598 15.6417C19.4517 15.2526 19.454 14.6194 19.0649 14.2275L17.6456 15.6366ZM17.2153 13.7839L17.925 13.0793L17.8641 13.018L17.7936 12.968L17.2153 13.7839ZM2 3L2.57824 2.18414L0.617212 0.794257L1.0137 3.16495L2 3ZM5.71866 25.2348L4.73236 25.3998L4.87202 26.2348H5.71866V25.2348ZM7.49373 25.2348V26.2348H7.89993L8.19107 25.9516L7.49373 25.2348ZM17.9127 16.4929C18.3085 16.1078 18.3172 15.4747 17.9321 15.0788C17.5469 14.683 16.9138 14.6743 16.518 15.0594L17.9127 16.4929ZM137.917 15.5075H136.917V15.926L137.215 16.2198L137.917 15.5075ZM147.813 25.2594L148.724 24.8475L148.647 24.6778L148.514 24.5471L147.813 25.2594ZM149.291 28.5315L148.38 28.9433L149.789 32.0603L150.281 28.6753L149.291 28.5315ZM153 3.02451L153.99 3.16839L154.328 0.842311L152.417 2.21175L153 3.02451ZM137.917 13.8365L137.334 13.0237L136.917 13.3229V13.8365H137.917ZM59.1753 83.3584H60.1753V82.9461L59.8847 82.6536L59.1753 83.3584ZM55.5509 79.7105L56.2603 79.0057L55.5509 78.2917L54.8415 79.0057L55.5509 79.7105ZM51.9265 83.3584L51.2171 82.6536L50.9265 82.9461V83.3584H51.9265ZM51.9265 90.5888V91.5888H52.9265V90.5888H51.9265ZM46.3992 90.5888H45.3992V91.5888H46.3992V90.5888ZM46.3992 81.5395L45.6918 80.8326L45.3992 81.1255V81.5395H46.3992ZM55.5056 72.4257L56.213 71.7189L55.5056 71.0109L54.7982 71.7189L55.5056 72.4257ZM64.612 81.5395H65.612V81.1255L65.3194 80.8326L64.612 81.5395ZM64.612 118V119H65.612V118H64.612ZM46.3992 118H45.3992V119H46.3992V118ZM46.3992 105.237L45.692 104.531L45.3992 104.823V105.237H46.3992ZM55.5065 96.1255V95.1255H55.0922L54.7992 95.4186L55.5065 96.1255ZM59.1753 96.1255V97.1255H60.1753V96.1255H59.1753ZM59.1753 112.554V113.554H60.1753V112.554H59.1753ZM59.1753 101.571H60.1753V100.571H59.1753V101.571ZM57.3631 101.571V100.571H56.946L56.6525 100.868L57.3631 101.571ZM51.9265 107.063L51.2159 106.359L50.9265 106.651V107.063H51.9265ZM51.9265 112.554H50.9265V113.554H51.9265V112.554ZM80.9219 83.3584H81.9219V82.9461L81.6313 82.6536L80.9219 83.3584ZM77.2975 79.7105L78.0069 79.0057L77.2975 78.2917L76.5881 79.0057L77.2975 79.7105ZM73.6731 83.3584L72.9637 82.6536L72.6731 82.9461V83.3584H73.6731ZM73.6731 90.5888V91.5888H74.6731V90.5888H73.6731ZM68.2364 90.5888H67.2364V91.5888H68.2364V90.5888ZM68.2364 81.5395L67.529 80.8326L67.2364 81.1255V81.5395H68.2364ZM77.3428 72.4257L78.0502 71.7189L77.3428 71.0109L76.6354 71.7189L77.3428 72.4257ZM86.4492 81.5395H87.4492V81.1255L87.1566 80.8326L86.4492 81.5395ZM86.4492 118V119H87.4492V118H86.4492ZM68.2364 118H67.2364V119H68.2364V118ZM68.2364 105.237L67.5291 104.531L67.2364 104.823V105.237H68.2364ZM77.3437 96.1255V95.1255H76.9293L76.6364 95.4186L77.3437 96.1255ZM80.9219 96.1255V97.1255H81.9219V96.1255H80.9219ZM80.9219 112.554V113.554H81.9219V112.554H80.9219ZM80.9219 101.571H81.9219V100.571H80.9219V101.571ZM79.1097 101.571V100.571H78.6926L78.3991 100.868L79.1097 101.571ZM73.6731 107.063L72.9624 106.359L72.6731 106.651V107.063H73.6731ZM73.6731 112.554H72.6731V113.554H73.6731V112.554ZM102.759 83.3584H103.759V82.9424L103.464 82.6492L102.759 83.3584ZM99.0894 79.7105L99.7943 79.0013L99.0894 78.3005L98.3844 79.0013L99.0894 79.7105ZM95.4196 83.3584L94.7146 82.6492L94.4196 82.9424V83.3584H95.4196ZM95.4196 90.5888V91.5888H96.4196V90.5888H95.4196ZM89.983 90.5888H88.983V91.5888H89.983V90.5888ZM89.983 81.5395L89.2756 80.8326L88.983 81.1255V81.5395H89.983ZM99.0894 72.4257L99.7967 71.7189L99.0894 71.0109L98.382 71.7189L99.0894 72.4257ZM108.196 81.5395H109.196V81.1255L108.903 80.8326L108.196 81.5395ZM108.196 118V119H109.196V118H108.196ZM89.983 118H88.983V119H89.983V118ZM89.983 105.237L89.2757 104.531L88.983 104.823V105.237H89.983ZM99.0903 96.1255V95.1255H98.6759L98.383 95.4186L99.0903 96.1255ZM102.759 96.1255V97.1255H103.759V96.1255H102.759ZM102.759 112.551L102.759 113.551L103.759 113.551V112.551H102.759ZM102.759 101.571H103.759V100.571H102.759V101.571ZM100.947 101.571V100.571H100.53L100.236 100.868L100.947 101.571ZM95.5102 107.063L94.7996 106.359L94.5102 106.651V107.063H95.5102ZM95.5102 112.554H94.5102V113.554L95.5106 113.554L95.5102 112.554ZM27.8412 53.98L16.4243 65.4164L17.8397 66.8294L29.2566 55.393L27.8412 53.98ZM17.8397 65.4164L6.42275 53.98L5.00733 55.393L16.4243 66.8294L17.8397 65.4164ZM6.71504 54.6865V25.2784H4.71504V54.6865H6.71504ZM6.42073 25.9869L17.9029 14.5505L16.4915 13.1334L5.00934 24.5699L6.42073 25.9869ZM16.4875 14.5464L27.8392 25.9829L29.2587 24.5739L17.907 13.1375L16.4875 14.5464ZM27.5489 25.2784V54.6865H29.5489V25.2784H27.5489ZM16.4243 19.6706L11.5313 24.5719L12.9467 25.9849L17.8397 21.0836L16.4243 19.6706ZM11.239 25.2784V54.6865H13.239V25.2784H11.239ZM11.5313 55.393L16.4243 60.2943L17.8397 58.8813L12.9467 53.98L11.5313 55.393ZM17.8397 60.2943L22.7327 55.393L21.3173 53.98L16.4243 58.8813L17.8397 60.2943ZM23.025 54.6865V25.2784H21.025V54.6865H23.025ZM22.7327 24.5719L17.8397 19.6706L16.4243 21.0836L21.3173 25.9849L22.7327 24.5719ZM48.8286 24.5501L43.9356 19.6488L42.5202 21.0618L47.4131 25.9631L48.8286 24.5501ZM42.5202 19.6488L37.6272 24.5501L39.0426 25.9631L43.9356 21.0618L42.5202 19.6488ZM37.3349 25.2566V57.9676H39.3349V25.2566H37.3349ZM37.5021 57.4141L30.9781 67.2295L32.6437 68.3366L39.1677 58.5212L37.5021 57.4141ZM32.8109 67.7824L32.7792 18.7018L30.7792 18.7031L30.8109 67.7837L32.8109 67.7824ZM32.4892 17.9982L27.6279 13.0969L26.2079 14.5053L31.0692 19.4066L32.4892 17.9982ZM26.9179 14.8011H38.3349V12.8011H26.9179V14.8011ZM37.3349 13.8011V18.7388H39.3349V13.8011H37.3349ZM39.0405 19.4474L43.9996 14.5097L42.5884 13.0925L37.6293 18.0301L39.0405 19.4474ZM42.5844 14.5057L50.7068 22.6855L52.1259 21.2763L44.0036 13.0965L42.5844 14.5057ZM52.1231 22.6883L60.3107 14.5085L58.8972 13.0937L50.7096 21.2735L52.1231 22.6883ZM58.8938 14.5052L70.2446 25.9534L71.6649 24.5453L60.3141 13.097L58.8938 14.5052ZM69.9547 25.2494V67.7867H71.9547V25.2494H69.9547ZM71.7872 67.2326L65.2633 57.4299L63.5983 58.538L70.1222 68.3407L71.7872 67.2326ZM65.4308 57.984V25.2566H63.4308V57.984H65.4308ZM65.1385 24.5501L60.2455 19.6488L58.8301 21.0618L63.7231 25.9631L65.1385 24.5501ZM58.8301 19.6488L53.9371 24.5501L55.3525 25.9631L60.2455 21.0618L58.8301 19.6488ZM53.6448 25.2566V67.7867H55.6448V25.2566H53.6448ZM55.4773 67.2326L48.9533 57.4299L47.2884 58.538L53.8123 68.3407L55.4773 67.2326ZM49.1208 57.984V25.2566H47.1208V57.984H49.1208ZM93.8493 19.3362H80.8313V21.3362H93.8493V19.3362ZM79.8313 20.3334L79.7987 31.7698L81.7987 31.7755L81.8313 20.3391L79.8313 20.3334ZM80.7987 32.7727H90.5266V30.7727H80.7987V32.7727ZM89.5266 31.7727V41.6661H91.5266V31.7727H89.5266ZM91.2367 40.962L87.9965 37.6944L86.5763 39.1027L89.8166 42.3703L91.2367 40.962ZM87.2864 37.3986H80.7407V39.3986H87.2864V37.3986ZM79.7407 38.3986V51.4688H81.7407V38.3986H79.7407ZM80.7432 52.4688L93.8183 52.4361L93.8133 50.4362L80.7382 50.4688L80.7432 52.4688ZM94.5193 52.1468L97.7541 48.9446L96.3471 47.5233L93.1123 50.7255L94.5193 52.1468ZM96.0506 48.2339V58.0039H98.0506V48.2339H96.0506ZM97.0506 57.0039H80.7507V59.0039H97.0506V57.0039ZM79.9186 57.4493L73.3846 67.252L75.0488 68.3613L81.5828 58.5586L79.9186 57.4493ZM75.2167 67.806L75.1841 18.7263L73.1841 18.7276L73.2167 67.8073L75.2167 67.806ZM74.8955 18.0241L70.0288 13.0983L68.606 14.5039L73.4727 19.4298L74.8955 18.0241ZM69.3174 14.8011H97.0506V12.8011H69.3174V14.8011ZM96.0506 13.8044L96.0832 23.6561L98.0832 23.6495L98.0506 13.7978L96.0506 13.8044ZM97.7992 22.9547L94.5653 19.6381L93.1334 21.0344L96.3673 24.3509L97.7992 22.9547ZM106.004 57.4141L99.4798 67.2295L101.145 68.3366L107.669 58.5212L106.004 57.4141ZM101.313 67.7824L101.28 18.7054L99.28 18.7067L99.3126 67.7837L101.313 67.7824ZM100.99 18.0022L96.13 13.0972L94.7093 14.505L99.5696 19.4099L100.99 18.0022ZM95.4196 14.8011H106.837V12.8011H95.4196V14.8011ZM105.837 13.8011V18.7388H107.837V13.8011H105.837ZM107.542 19.4474L112.501 14.5097L111.09 13.0925L106.131 18.0301L107.542 19.4474ZM111.086 14.5052L122.436 25.9534L123.857 24.5453L112.506 13.097L111.086 14.5052ZM122.146 25.2494V67.7867H124.146V25.2494H122.146ZM123.979 67.2326L117.455 57.4299L115.79 58.538L122.314 68.3407L123.979 67.2326ZM117.623 57.984V25.2566H115.623V57.984H117.623ZM117.33 24.5501L112.437 19.6488L111.022 21.0618L115.915 25.9631L117.33 24.5501ZM111.022 19.6488L106.129 24.5501L107.544 25.9631L112.437 21.0618L111.022 19.6488ZM105.837 25.2566V57.9676H107.837V25.2566H105.837ZM148.534 53.9604L137.117 65.4114L138.534 66.8235L149.951 55.3725L148.534 53.9604ZM138.534 65.4114L127.117 53.9604L125.7 55.3725L137.117 66.8235L138.534 65.4114ZM127.408 54.6665V46.5675H125.408V54.6665H127.408ZM126.408 47.5675H141.087V45.5675H126.408V47.5675ZM140.38 45.861L135.487 50.7623L136.902 52.1753L141.795 47.274L140.38 45.861ZM136.902 50.7623L135.271 49.1285L133.856 50.5415L135.487 52.1753L136.902 50.7623ZM134.563 48.835H132.932V50.835H134.563V48.835ZM131.932 49.835V54.7364H133.932V49.835H131.932ZM132.225 55.4429L137.118 60.3442L138.533 58.9312L133.64 54.0299L132.225 55.4429ZM138.533 60.3442L143.426 55.4429L142.011 54.0299L137.118 58.9312L138.533 60.3442ZM143.718 54.7364V43.2999H141.718V54.7364H143.718ZM142.718 42.2999H126.408V44.2999H142.718V42.2999ZM127.408 43.2999V25.302H125.408V43.2999H127.408ZM127.115 26.0101L138.597 14.5591L137.185 13.143L125.702 24.5939L127.115 26.0101ZM137.18 14.555L148.532 26.006L149.953 24.598L138.601 13.147L137.18 14.555ZM148.242 25.302V28.5342H150.242V25.302H148.242ZM148.727 27.6771L140.572 32.5784L141.603 34.2926L149.758 29.3913L148.727 27.6771ZM142.087 33.4355V30.168H140.087V33.4355H142.087ZM141.795 30.8745L143.426 29.2407L142.011 27.8277L140.38 29.4615L141.795 30.8745ZM143.718 28.5342V25.2203H141.718V28.5342H143.718ZM143.427 24.5143L138.534 19.6066L137.117 21.0187L142.01 25.9264L143.427 24.5143ZM137.117 19.6066L132.224 24.5143L133.641 25.9264L138.534 21.0187L137.117 19.6066ZM131.932 25.2203V36.674H133.932V25.2203H131.932ZM132.932 37.674H149.242V35.674H132.932V37.674ZM148.242 36.674V54.6665H150.242V36.674H148.242ZM19.0649 14.2275L17.925 13.0793L16.5057 14.4884L17.6456 15.6366L19.0649 14.2275ZM17.7936 12.968L2.57824 2.18414L1.42176 3.81586L16.6371 14.5997L17.7936 12.968ZM1.0137 3.16495L4.73236 25.3998L6.70496 25.0699L2.9863 2.83505L1.0137 3.16495ZM5.71866 26.2348H7.49373V24.2348H5.71866V26.2348ZM8.19107 25.9516L17.9127 16.4929L16.518 15.0594L6.79638 24.5181L8.19107 25.9516ZM137.215 16.2198L147.111 25.9716L148.514 24.5471L138.619 14.7952L137.215 16.2198ZM146.901 25.6712L148.38 28.9433L150.203 28.1196L148.724 24.8475L146.901 25.6712ZM150.281 28.6753L153.99 3.16839L152.01 2.88062L148.302 28.3876L150.281 28.6753ZM152.417 2.21175L137.334 13.0237L138.5 14.6493L153.583 3.83726L152.417 2.21175ZM136.917 13.8365V15.5075H138.917V13.8365H136.917ZM59.8847 82.6536L56.2603 79.0057L54.8415 80.4154L58.466 84.0632L59.8847 82.6536ZM54.8415 79.0057L51.2171 82.6536L52.6359 84.0632L56.2603 80.4154L54.8415 79.0057ZM50.9265 83.3584V90.5888H52.9265V83.3584H50.9265ZM51.9265 89.5888H46.3992V91.5888H51.9265V89.5888ZM47.3992 90.5888V81.5395H45.3992V90.5888H47.3992ZM47.1066 82.2463L56.213 73.1325L54.7982 71.7189L45.6918 80.8326L47.1066 82.2463ZM54.7982 73.1325L63.9046 82.2463L65.3194 80.8326L56.213 71.7189L54.7982 73.1325ZM63.612 81.5395V118H65.612V81.5395H63.612ZM64.612 117H46.3992V119H64.612V117ZM47.3992 118V105.237H45.3992V118H47.3992ZM47.1065 105.944L56.2138 96.8324L54.7992 95.4186L45.692 104.531L47.1065 105.944ZM55.5065 97.1255H59.1753V95.1255H55.5065V97.1255ZM60.1753 96.1255V83.3584H58.1753V96.1255H60.1753ZM60.1753 112.554V101.571H58.1753V112.554H60.1753ZM59.1753 100.571H57.3631V102.571H59.1753V100.571ZM56.6525 100.868L51.2159 106.359L52.6371 107.766L58.0738 102.275L56.6525 100.868ZM50.9265 107.063V112.554H52.9265V107.063H50.9265ZM51.9265 113.554H59.1753V111.554H51.9265V113.554ZM81.6313 82.6536L78.0069 79.0057L76.5881 80.4154L80.2125 84.0632L81.6313 82.6536ZM76.5881 79.0057L72.9637 82.6536L74.3824 84.0632L78.0069 80.4154L76.5881 79.0057ZM72.6731 83.3584V90.5888H74.6731V83.3584H72.6731ZM73.6731 89.5888H68.2364V91.5888H73.6731V89.5888ZM69.2364 90.5888V81.5395H67.2364V90.5888H69.2364ZM68.9438 82.2463L78.0502 73.1325L76.6354 71.7189L67.529 80.8326L68.9438 82.2463ZM76.6354 73.1325L85.7418 82.2463L87.1566 80.8326L78.0502 71.7189L76.6354 73.1325ZM85.4492 81.5395V118H87.4492V81.5395H85.4492ZM86.4492 117H68.2364V119H86.4492V117ZM69.2364 118V105.237H67.2364V118H69.2364ZM68.9437 105.944L78.051 96.8324L76.6364 95.4186L67.5291 104.531L68.9437 105.944ZM77.3437 97.1255H80.9219V95.1255H77.3437V97.1255ZM81.9219 96.1255V83.3584H79.9219V96.1255H81.9219ZM81.9219 112.554V101.571H79.9219V112.554H81.9219ZM80.9219 100.571H79.1097V102.571H80.9219V100.571ZM78.3991 100.868L72.9624 106.359L74.3837 107.766L79.8203 102.275L78.3991 100.868ZM72.6731 107.063V112.554H74.6731V107.063H72.6731ZM73.6731 113.554H80.9219V111.554H73.6731V113.554ZM103.464 82.6492L99.7943 79.0013L98.3844 80.4198L102.054 84.0676L103.464 82.6492ZM98.3844 79.0013L94.7146 82.6492L96.1246 84.0676L99.7943 80.4198L98.3844 79.0013ZM94.4196 83.3584V90.5888H96.4196V83.3584H94.4196ZM95.4196 89.5888H89.983V91.5888H95.4196V89.5888ZM90.983 90.5888V81.5395H88.983V90.5888H90.983ZM90.6904 82.2463L99.7967 73.1325L98.382 71.7189L89.2756 80.8326L90.6904 82.2463ZM98.382 73.1325L107.488 82.2463L108.903 80.8326L99.7967 71.7189L98.382 73.1325ZM107.196 81.5395V118H109.196V81.5395H107.196ZM108.196 117H89.983V119H108.196V117ZM90.983 118V105.237H88.983V118H90.983ZM90.6903 105.944L99.7975 96.8324L98.383 95.4186L89.2757 104.531L90.6903 105.944ZM99.0903 97.1255H102.759V95.1255H99.0903V97.1255ZM103.759 96.1255V83.3584H101.759V96.1255H103.759ZM103.759 112.551V101.571H101.759V112.551H103.759ZM102.759 100.571H100.947V102.571H102.759V100.571ZM100.236 100.868L94.7996 106.359L96.2209 107.766L101.658 102.275L100.236 100.868ZM94.5102 107.063V112.554H96.5102V107.063H94.5102ZM95.5106 113.554L102.759 113.551L102.759 111.551L95.5099 111.554L95.5106 113.554Z" fill="black" fill-opacity="0.25" mask="url(#path-1-outside-1_50_62)"/>
</svg>
