<svg width="283" height="171" viewBox="0 0 283 171" fill="none" xmlns="http://www.w3.org/2000/svg">
<path d="M74.2626 81.3975C69.4754 81.3975 65.8111 80.0382 63.2698 77.3195C60.7285 74.6009 59.4578 70.7594 59.4578 65.7949V33.1712C59.4578 28.2068 60.7285 24.3652 63.2698 21.6466C65.8111 18.9279 69.4754 17.5686 74.2626 17.5686C79.0497 17.5686 82.714 18.9279 85.2553 21.6466C87.7966 24.3652 89.0673 28.2068 89.0673 33.1712V65.7949C89.0673 70.7594 87.7966 74.6009 85.2553 77.3195C82.714 80.0382 79.0497 81.3975 74.2626 81.3975ZM74.2626 72.5324C77.6313 72.5324 79.3157 70.4934 79.3157 66.4154V32.5507C79.3157 28.4727 77.6313 26.4337 74.2626 26.4337C70.8938 26.4337 69.2094 28.4727 69.2094 32.5507V66.4154C69.2094 70.4934 70.8938 72.5324 74.2626 72.5324ZM91.2296 18.4551H105.148L111.353 62.8694H111.531L117.736 18.4551H131.655V80.511H122.435V33.5258H122.257L115.165 80.511H107.009L99.9174 33.5258H99.7401V80.511H91.2296V18.4551ZM134.499 18.4551H161.094V27.3203H144.251V43.7207H157.637V52.5859H144.251V71.6459H161.094V80.511H134.499V18.4551ZM162.272 18.4551H174.506L183.991 55.6H184.169V18.4551H192.856V80.511H182.839L171.137 35.2102H170.96V80.511H162.272V18.4551ZM208.349 81.3975C203.621 81.3975 200.045 80.0677 197.622 77.4082C195.199 74.6896 193.987 70.8185 193.987 65.7949V62.2488H203.207V66.5041C203.207 70.5229 204.892 72.5324 208.26 72.5324C209.915 72.5324 211.156 72.0596 211.984 71.114C212.87 70.1092 213.313 68.5135 213.313 66.3268C213.313 63.7264 212.722 61.451 211.54 59.5006C210.358 57.4912 208.172 55.0976 204.98 52.3199C200.961 48.7738 198.154 45.5824 196.558 42.7456C194.963 39.8496 194.165 36.5991 194.165 32.9939C194.165 28.0886 195.406 24.3061 197.888 21.6466C200.37 18.9279 203.975 17.5686 208.704 17.5686C213.372 17.5686 216.889 18.9279 219.253 21.6466C221.676 24.3061 222.888 28.1477 222.888 33.1712V35.7421H213.668V32.5507C213.668 30.423 213.254 28.8864 212.427 27.9408C211.599 26.9361 210.388 26.4337 208.792 26.4337C205.542 26.4337 203.916 28.4136 203.916 32.3734C203.916 34.6192 204.507 36.7173 205.689 38.6676C206.93 40.6179 209.147 42.982 212.338 45.7597C216.416 49.3058 219.223 52.5268 220.76 55.4227C222.297 58.3186 223.065 61.7169 223.065 65.6176C223.065 70.7003 221.794 74.6009 219.253 77.3195C216.771 80.0382 213.136 81.3975 208.349 81.3975Z" fill="#E38E74"/>
<rect x="59.5134" y="81.7747" width="165.482" height="5.91008" fill="#E38E74"/>
<path d="M110.016 89.3994C105.288 89.3994 101.683 90.7291 99.2004 93.3887C96.7182 96.1073 95.4771 99.9784 95.4771 105.002V106.154H104.697V104.381C104.697 100.303 106.381 98.2645 109.75 98.2645C111.582 98.2645 112.941 98.826 113.828 99.9489C114.714 101.072 115.158 103.052 115.158 105.889V117.768H114.98C113.266 114.163 110.311 112.36 106.115 112.36C102.569 112.36 99.8801 113.572 98.048 115.995C96.2158 118.418 95.2998 121.934 95.2998 126.544V137.626C95.2998 142.59 96.5704 146.432 99.1118 149.15C101.653 151.869 105.317 153.228 110.105 153.228C114.892 153.228 118.556 151.869 121.097 149.15C123.639 146.432 124.909 142.59 124.909 137.626V105.534C124.909 94.7776 119.945 89.3994 110.016 89.3994ZM110.105 121.225C113.473 121.225 115.158 123.264 115.158 127.342V138.335C115.158 142.354 113.473 144.363 110.105 144.363C106.736 144.363 105.051 142.354 105.051 138.335V127.342C105.051 123.264 106.736 121.225 110.105 121.225ZM141.078 89.3994C136.35 89.3994 132.745 90.7291 130.263 93.3887C127.781 96.1073 126.54 99.9784 126.54 105.002V106.154H135.759V104.381C135.759 100.303 137.444 98.2645 140.812 98.2645C142.645 98.2645 144.004 98.826 144.89 99.9489C145.777 101.072 146.22 103.052 146.22 105.889V117.768H146.043C144.329 114.163 141.374 112.36 137.178 112.36C133.632 112.36 130.943 113.572 129.111 115.995C127.278 118.418 126.362 121.934 126.362 126.544V137.626C126.362 142.59 127.633 146.432 130.174 149.15C132.716 151.869 136.38 153.228 141.167 153.228C145.954 153.228 149.619 151.869 152.16 149.15C154.701 146.432 155.972 142.59 155.972 137.626V105.534C155.972 94.7776 151.007 89.3994 141.078 89.3994ZM141.167 121.225C144.536 121.225 146.22 123.264 146.22 127.342V138.335C146.22 142.354 144.536 144.363 141.167 144.363C137.798 144.363 136.114 142.354 136.114 138.335V127.342C136.114 123.264 137.798 121.225 141.167 121.225ZM172.141 89.3994C167.413 89.3994 163.808 90.7291 161.326 93.3887C158.843 96.1073 157.602 99.9784 157.602 105.002V106.154H166.822V104.381C166.822 100.303 168.506 98.2645 171.875 98.2645C173.707 98.2645 175.066 98.826 175.953 99.9489C176.84 101.072 177.283 103.052 177.283 105.889V117.768H177.105C175.392 114.163 172.436 112.36 168.24 112.36C164.694 112.36 162.005 113.572 160.173 115.995C158.341 118.418 157.425 121.934 157.425 126.544V137.626C157.425 142.59 158.696 146.432 161.237 149.15C163.778 151.869 167.442 153.228 172.23 153.228C177.017 153.228 180.681 151.869 183.222 149.15C185.764 146.432 187.034 142.59 187.034 137.626V105.534C187.034 94.7776 182.07 89.3994 172.141 89.3994ZM172.23 121.225C175.598 121.225 177.283 123.264 177.283 127.342V138.335C177.283 142.354 175.598 144.363 172.23 144.363C168.861 144.363 167.177 142.354 167.177 138.335V127.342C167.177 123.264 168.861 121.225 172.23 121.225Z" fill="#E38E74"/>
</svg>
