<?xml version="1.0" encoding="UTF-8"?><svg id="Layer_1" xmlns="http://www.w3.org/2000/svg" viewBox="0 0 669.54 287.35"><defs><style>.cls-1{fill:#8e8585;}</style></defs><path class="cls-1" d="M117.72,229.18l-50.62,50.71-50.62-50.71V98.78l50.91-50.71,50.33,50.71V229.18ZM67.1,77.05l-21.7,21.73V229.18l21.7,21.73,21.7-21.73V98.78l-21.7-21.73Z"/><path class="cls-1" d="M204.5,98.69l-21.7-21.73-21.7,21.73V243.73l-28.93,43.52-.14-217.62-21.56-21.73h50.62v21.89l21.99-21.89,36.01,36.27,36.3-36.27,50.33,50.76v188.61l-28.93-43.47V98.69l-21.7-21.73-21.7,21.73v188.58l-28.93-43.47V98.69Z"/><path class="cls-1" d="M407.26,76.87h-57.72l-.14,50.71h43.13v43.87l-14.37-14.49h-29.02v57.95l57.98-.14,14.34-14.2v43.32h-72.27l-28.97,43.47-.14-217.62-21.58-21.84h122.97l.14,43.68-14.34-14.71Z"/><path class="cls-1" d="M464.85,243.73l-28.93,43.52-.14-217.61-21.55-21.75h50.62v21.89l21.99-21.89,50.33,50.76v188.61l-28.93-43.47V98.69l-21.69-21.73-21.7,21.73V243.73Z"/><path class="cls-1" d="M652.88,229.09l-50.62,50.77-50.63-50.77v-35.91h65.09l-21.7,21.73-7.23-7.24h-7.23v21.73l21.7,21.73,21.7-21.73v-50.71h-72.32V98.89l50.91-50.77,50.33,50.77v14.33l-36.16,21.73v-14.49l7.23-7.24v-14.69l-21.7-21.76-21.7,21.76v50.79h72.32v79.78Z"/><path class="cls-1" d="M72.52,52.91l-5.05-5.09L0,0,16.49,98.59h7.87l43.11-41.94"/><path class="cls-1" d="M602.66,55.46l43.88,43.24,6.55,14.51L669.54,.11l-66.88,47.94v7.41Z"/></svg>