<svg width="1140" height="417" viewBox="0 0 1140 417" fill="none" xmlns="http://www.w3.org/2000/svg">
<g filter="url(#filter0_d_2_6)">
<path d="M111.854 388.109C84.8536 388.109 64.187 380.442 49.8536 365.109C35.5203 349.775 28.3536 328.109 28.3536 300.109V116.109C28.3536 88.1086 35.5203 66.442 49.8536 51.1086C64.187 35.7753 84.8536 28.1086 111.854 28.1086C138.854 28.1086 159.52 35.7753 173.854 51.1086C188.187 66.442 195.354 88.1086 195.354 116.109V300.109C195.354 328.109 188.187 349.775 173.854 365.109C159.52 380.442 138.854 388.109 111.854 388.109ZM111.854 338.109C130.854 338.109 140.354 326.609 140.354 303.609V112.609C140.354 89.6086 130.854 78.1086 111.854 78.1086C92.8536 78.1086 83.3536 89.6086 83.3536 112.609V303.609C83.3536 326.609 92.8536 338.109 111.854 338.109ZM247.549 33.1086H326.049L361.049 283.609H362.049L397.049 33.1086H475.549V383.109H423.549V118.109H422.549L382.549 383.109H336.549L296.549 118.109H295.549V383.109H247.549V33.1086ZM531.592 33.1086H681.592V83.1086H586.592V175.609H662.092V225.609H586.592V333.109H681.592V383.109H531.592V33.1086ZM728.233 33.1086H797.233L850.733 242.609H851.733V33.1086H900.733V383.109H844.233L778.233 127.609H777.233V383.109H728.233V33.1086ZM1028.11 388.109C1001.44 388.109 981.278 380.609 967.611 365.609C953.945 350.275 947.111 328.442 947.111 300.109V280.109H999.111V304.109C999.111 326.775 1008.61 338.109 1027.61 338.109C1036.94 338.109 1043.94 335.442 1048.61 330.109C1053.61 324.442 1056.11 315.442 1056.11 303.109C1056.11 288.442 1052.78 275.609 1046.11 264.609C1039.44 253.275 1027.11 239.775 1009.11 224.109C986.445 204.109 970.611 186.109 961.611 170.109C952.611 153.775 948.111 135.442 948.111 115.109C948.111 87.442 955.111 66.1086 969.111 51.1086C983.111 35.7753 1003.44 28.1086 1030.11 28.1086C1056.44 28.1086 1076.28 35.7753 1089.61 51.1086C1103.28 66.1086 1110.11 87.7753 1110.11 116.109V130.609H1058.11V112.609C1058.11 100.609 1055.78 91.942 1051.11 86.6086C1046.44 80.942 1039.61 78.1086 1030.61 78.1086C1012.28 78.1086 1003.11 89.2753 1003.11 111.609C1003.11 124.275 1006.44 136.109 1013.11 147.109C1020.11 158.109 1032.61 171.442 1050.61 187.109C1073.61 207.109 1089.44 225.275 1098.11 241.609C1106.78 257.942 1111.11 277.109 1111.11 299.109C1111.11 327.775 1103.94 349.775 1089.61 365.109C1075.61 380.442 1055.11 388.109 1028.11 388.109Z" fill="#121212"/>
<path d="M49.8536 365.109L52.7757 362.377L49.8536 365.109ZM49.8536 51.1086L52.7757 53.8402V53.8402L49.8536 51.1086ZM173.854 51.1086L170.932 53.8402V53.8402L173.854 51.1086ZM173.854 365.109L170.932 362.377L173.854 365.109ZM111.854 384.109C85.6259 384.109 66.1506 376.685 52.7757 362.377L46.9315 367.84C62.2233 384.199 84.0814 392.109 111.854 392.109V384.109ZM52.7757 362.377C39.34 348.004 32.3536 327.441 32.3536 300.109H24.3536C24.3536 328.777 31.7006 351.547 46.9315 367.84L52.7757 362.377ZM32.3536 300.109V116.109H24.3536V300.109H32.3536ZM32.3536 116.109C32.3536 88.7765 39.34 68.2133 52.7757 53.8402L46.9315 48.3771C31.7006 64.6706 24.3536 87.4408 24.3536 116.109H32.3536ZM52.7757 53.8402C66.1506 39.5322 85.6259 32.1086 111.854 32.1086V24.1086C84.0814 24.1086 62.2233 32.0184 46.9315 48.3771L52.7757 53.8402ZM111.854 32.1086C138.081 32.1086 157.557 39.5322 170.932 53.8402L176.776 48.3771C161.484 32.0184 139.626 24.1086 111.854 24.1086V32.1086ZM170.932 53.8402C184.367 68.2133 191.354 88.7765 191.354 116.109H199.354C199.354 87.4408 192.007 64.6706 176.776 48.3771L170.932 53.8402ZM191.354 116.109V300.109H199.354V116.109H191.354ZM191.354 300.109C191.354 327.441 184.367 348.004 170.932 362.377L176.776 367.84C192.007 351.547 199.354 328.777 199.354 300.109H191.354ZM170.932 362.377C157.557 376.685 138.081 384.109 111.854 384.109V392.109C139.626 392.109 161.484 384.199 176.776 367.84L170.932 362.377ZM111.854 342.109C122.193 342.109 130.603 338.943 136.312 332.031C141.901 325.266 144.354 315.559 144.354 303.609H136.354C136.354 314.658 134.056 322.201 130.145 326.936C126.354 331.524 120.514 334.109 111.854 334.109V342.109ZM144.354 303.609V112.609H136.354V303.609H144.354ZM144.354 112.609C144.354 100.658 141.901 90.9515 136.312 84.1861C130.603 77.2744 122.193 74.1086 111.854 74.1086V82.1086C120.514 82.1086 126.354 84.6929 130.145 89.2812C134.056 94.0158 136.354 101.559 136.354 112.609H144.354ZM111.854 74.1086C101.514 74.1086 93.1045 77.2744 87.3948 84.1861C81.806 90.9515 79.3536 100.658 79.3536 112.609H87.3536C87.3536 101.559 89.6513 94.0158 93.5625 89.2812C97.3528 84.6929 103.193 82.1086 111.854 82.1086V74.1086ZM79.3536 112.609V303.609H87.3536V112.609H79.3536ZM79.3536 303.609C79.3536 315.559 81.806 325.266 87.3948 332.031C93.1045 338.943 101.514 342.109 111.854 342.109V334.109C103.193 334.109 97.3528 331.524 93.5625 326.936C89.6513 322.201 87.3536 314.658 87.3536 303.609H79.3536ZM247.549 33.1086V29.1086H243.549V33.1086H247.549ZM326.049 33.1086L330.01 32.5551L329.529 29.1086H326.049V33.1086ZM361.049 283.609L357.087 284.162L357.569 287.609H361.049V283.609ZM362.049 283.609V287.609H365.529L366.01 284.162L362.049 283.609ZM397.049 33.1086V29.1086H393.569L393.087 32.5551L397.049 33.1086ZM475.549 33.1086H479.549V29.1086H475.549V33.1086ZM475.549 383.109V387.109H479.549V383.109H475.549ZM423.549 383.109H419.549V387.109H423.549V383.109ZM423.549 118.109H427.549V114.109H423.549V118.109ZM422.549 118.109V114.109H419.107L418.594 117.512L422.549 118.109ZM382.549 383.109V387.109H385.99L386.504 383.706L382.549 383.109ZM336.549 383.109L332.594 383.706L333.107 387.109H336.549V383.109ZM296.549 118.109L300.504 117.512L299.991 114.109H296.549V118.109ZM295.549 118.109V114.109H291.549V118.109H295.549ZM295.549 383.109V387.109H299.549V383.109H295.549ZM247.549 383.109H243.549V387.109H247.549V383.109ZM247.549 37.1086H326.049V29.1086H247.549V37.1086ZM322.087 33.6621L357.087 284.162L365.01 283.055L330.01 32.5551L322.087 33.6621ZM361.049 287.609H362.049V279.609H361.049V287.609ZM366.01 284.162L401.01 33.6621L393.087 32.5551L358.087 283.055L366.01 284.162ZM397.049 37.1086H475.549V29.1086H397.049V37.1086ZM471.549 33.1086V383.109H479.549V33.1086H471.549ZM475.549 379.109H423.549V387.109H475.549V379.109ZM427.549 383.109V118.109H419.549V383.109H427.549ZM423.549 114.109H422.549V122.109H423.549V114.109ZM418.594 117.512L378.594 382.512L386.504 383.706L426.504 118.706L418.594 117.512ZM382.549 379.109H336.549V387.109H382.549V379.109ZM340.504 382.512L300.504 117.512L292.594 118.706L332.594 383.706L340.504 382.512ZM296.549 114.109H295.549V122.109H296.549V114.109ZM291.549 118.109V383.109H299.549V118.109H291.549ZM295.549 379.109H247.549V387.109H295.549V379.109ZM251.549 383.109V33.1086H243.549V383.109H251.549ZM531.592 33.1086V29.1086H527.592V33.1086H531.592ZM681.592 33.1086H685.592V29.1086H681.592V33.1086ZM681.592 83.1086V87.1086H685.592V83.1086H681.592ZM586.592 83.1086V79.1086H582.592V83.1086H586.592ZM586.592 175.609H582.592V179.609H586.592V175.609ZM662.092 175.609H666.092V171.609H662.092V175.609ZM662.092 225.609V229.609H666.092V225.609H662.092ZM586.592 225.609V221.609H582.592V225.609H586.592ZM586.592 333.109H582.592V337.109H586.592V333.109ZM681.592 333.109H685.592V329.109H681.592V333.109ZM681.592 383.109V387.109H685.592V383.109H681.592ZM531.592 383.109H527.592V387.109H531.592V383.109ZM531.592 37.1086H681.592V29.1086H531.592V37.1086ZM677.592 33.1086V83.1086H685.592V33.1086H677.592ZM681.592 79.1086H586.592V87.1086H681.592V79.1086ZM582.592 83.1086V175.609H590.592V83.1086H582.592ZM586.592 179.609H662.092V171.609H586.592V179.609ZM658.092 175.609V225.609H666.092V175.609H658.092ZM662.092 221.609H586.592V229.609H662.092V221.609ZM582.592 225.609V333.109H590.592V225.609H582.592ZM586.592 337.109H681.592V329.109H586.592V337.109ZM677.592 333.109V383.109H685.592V333.109H677.592ZM681.592 379.109H531.592V387.109H681.592V379.109ZM535.592 383.109V33.1086H527.592V383.109H535.592ZM728.233 33.1086V29.1086H724.233V33.1086H728.233ZM797.233 33.1086L801.108 32.1189L800.339 29.1086H797.233V33.1086ZM850.733 242.609L846.857 243.598L847.626 246.609H850.733V242.609ZM851.733 242.609V246.609H855.733V242.609H851.733ZM851.733 33.1086V29.1086H847.733V33.1086H851.733ZM900.733 33.1086H904.733V29.1086H900.733V33.1086ZM900.733 383.109V387.109H904.733V383.109H900.733ZM844.233 383.109L840.36 384.109L841.135 387.109H844.233V383.109ZM778.233 127.609L782.105 126.608L781.331 123.609H778.233V127.609ZM777.233 127.609V123.609H773.233V127.609H777.233ZM777.233 383.109V387.109H781.233V383.109H777.233ZM728.233 383.109H724.233V387.109H728.233V383.109ZM728.233 37.1086H797.233V29.1086H728.233V37.1086ZM793.357 34.0983L846.857 243.598L854.608 241.619L801.108 32.1189L793.357 34.0983ZM850.733 246.609H851.733V238.609H850.733V246.609ZM855.733 242.609V33.1086H847.733V242.609H855.733ZM851.733 37.1086H900.733V29.1086H851.733V37.1086ZM896.733 33.1086V383.109H904.733V33.1086H896.733ZM900.733 379.109H844.233V387.109H900.733V379.109ZM848.105 382.108L782.105 126.608L774.36 128.609L840.36 384.109L848.105 382.108ZM778.233 123.609H777.233V131.609H778.233V123.609ZM773.233 127.609V383.109H781.233V127.609H773.233ZM777.233 379.109H728.233V387.109H777.233V379.109ZM732.233 383.109V33.1086H724.233V383.109H732.233ZM967.611 365.609L964.625 368.27L964.64 368.286L964.655 368.303L967.611 365.609ZM947.111 280.109V276.109H943.111V280.109H947.111ZM999.111 280.109H1003.11V276.109H999.111V280.109ZM1048.61 330.109L1045.61 327.462L1045.61 327.468L1045.6 327.475L1048.61 330.109ZM1046.11 264.609L1042.66 266.637L1042.68 266.659L1042.69 266.682L1046.11 264.609ZM1009.11 224.109L1006.46 227.108L1006.48 227.117L1006.49 227.126L1009.11 224.109ZM961.611 170.109L958.108 172.039L958.117 172.054L958.125 172.07L961.611 170.109ZM969.111 51.1086L972.036 53.8379L972.051 53.8219L972.065 53.8057L969.111 51.1086ZM1089.61 51.1086L1086.59 53.7333L1086.62 53.7683L1086.65 53.8026L1089.61 51.1086ZM1110.11 130.609V134.609H1114.11V130.609H1110.11ZM1058.11 130.609H1054.11V134.609H1058.11V130.609ZM1051.11 86.6086L1048.02 89.1514L1048.06 89.1976L1048.1 89.2426L1051.11 86.6086ZM1013.11 147.109L1009.69 149.182L1009.71 149.219L1009.74 149.256L1013.11 147.109ZM1050.61 187.109L1047.99 190.126L1047.99 190.127L1050.61 187.109ZM1098.11 241.609L1094.58 243.483L1098.11 241.609ZM1089.61 365.109L1086.69 362.377L1086.67 362.394L1086.66 362.412L1089.61 365.109ZM1028.11 384.109C1002.2 384.109 983.258 376.842 970.568 362.915L964.655 368.303C979.298 384.375 1000.69 392.109 1028.11 392.109V384.109ZM970.598 362.947C957.796 348.584 951.111 327.834 951.111 300.109H943.111C943.111 329.05 950.094 351.966 964.625 368.27L970.598 362.947ZM951.111 300.109V280.109H943.111V300.109H951.111ZM947.111 284.109H999.111V276.109H947.111V284.109ZM995.111 280.109V304.109H1003.11V280.109H995.111ZM995.111 304.109C995.111 315.903 997.568 325.495 1003.17 332.178C1008.89 338.997 1017.29 342.109 1027.61 342.109V334.109C1018.93 334.109 1013.09 331.553 1009.3 327.039C1005.4 322.389 1003.11 314.981 1003.11 304.109H995.111ZM1027.61 342.109C1037.71 342.109 1045.97 339.199 1051.62 332.743L1045.6 327.475C1041.92 331.685 1036.18 334.109 1027.61 334.109V342.109ZM1051.61 332.755C1057.56 326.017 1060.11 315.839 1060.11 303.109H1052.11C1052.11 315.045 1049.67 322.867 1045.61 327.462L1051.61 332.755ZM1060.11 303.109C1060.11 287.816 1056.63 274.244 1049.53 262.535L1042.69 266.682C1048.93 276.973 1052.11 289.068 1052.11 303.109H1060.11ZM1049.56 262.581C1042.56 250.688 1029.84 236.85 1011.74 221.091L1006.49 227.126C1024.38 242.701 1036.33 255.863 1042.66 266.637L1049.56 262.581ZM1011.76 221.109C989.239 201.24 973.782 183.586 965.098 168.148L958.125 172.07C967.441 188.631 983.65 206.977 1006.46 227.108L1011.76 221.109ZM965.115 168.178C956.469 152.489 952.111 134.829 952.111 115.109H944.111C944.111 136.054 948.753 155.062 958.108 172.039L965.115 168.178ZM952.111 115.109C952.111 88.0957 958.938 67.8707 972.036 53.8379L966.187 48.3794C951.285 64.3466 944.111 86.7882 944.111 115.109H952.111ZM972.065 53.8057C985.105 39.5237 1004.23 32.1086 1030.11 32.1086V24.1086C1002.66 24.1086 981.117 32.0269 966.157 48.4115L972.065 53.8057ZM1030.11 32.1086C1055.65 32.1086 1074.23 39.5163 1086.59 53.7333L1092.63 48.4839C1078.33 32.0343 1057.24 24.1086 1030.11 24.1086V32.1086ZM1086.65 53.8026C1099.42 67.8181 1106.11 88.3762 1106.11 116.109H1114.11C1114.11 87.1744 1107.13 64.3992 1092.57 48.4147L1086.65 53.8026ZM1106.11 116.109V130.609H1114.11V116.109H1106.11ZM1110.11 126.609H1058.11V134.609H1110.11V126.609ZM1062.11 130.609V112.609H1054.11V130.609H1062.11ZM1062.11 112.609C1062.11 100.259 1059.74 90.3969 1054.12 83.9746L1048.1 89.2426C1051.81 93.487 1054.11 100.959 1054.11 112.609H1062.11ZM1054.2 84.0658C1048.6 77.2697 1040.51 74.1086 1030.61 74.1086V82.1086C1038.71 82.1086 1044.29 84.6143 1048.02 89.1514L1054.2 84.0658ZM1030.61 74.1086C1020.6 74.1086 1012.43 77.1967 1006.89 83.9457C1001.48 90.5435 999.111 99.9961 999.111 111.609H1007.11C1007.11 100.888 1009.33 93.5904 1013.08 89.0216C1016.7 84.6039 1022.29 82.1086 1030.61 82.1086V74.1086ZM999.111 111.609C999.111 125.018 1002.65 137.567 1009.69 149.182L1016.53 145.035C1010.24 134.65 1007.11 123.532 1007.11 111.609H999.111ZM1009.74 149.256C1017.05 160.745 1029.89 174.379 1047.99 190.126L1053.24 184.091C1035.33 168.505 1023.17 155.472 1016.49 144.961L1009.74 149.256ZM1047.99 190.127C1070.82 209.986 1086.24 227.775 1094.58 243.483L1101.64 239.734C1092.65 222.776 1076.4 204.231 1053.24 184.09L1047.99 190.127ZM1094.58 243.483C1102.89 259.139 1107.11 277.639 1107.11 299.109H1115.11C1115.11 276.579 1110.67 256.745 1101.64 239.734L1094.58 243.483ZM1107.11 299.109C1107.11 327.137 1100.11 348.02 1086.69 362.377L1092.53 367.84C1107.78 351.531 1115.11 328.413 1115.11 299.109H1107.11ZM1086.66 362.412C1073.63 376.684 1054.34 384.109 1028.11 384.109V392.109C1055.88 392.109 1077.6 384.2 1092.57 367.806L1086.66 362.412Z" fill="#121212"/>
</g>
<defs>
<filter id="filter0_d_2_6" x="0.353638" y="0.108643" width="1138.76" height="416" filterUnits="userSpaceOnUse" color-interpolation-filters="sRGB">
<feFlood flood-opacity="0" result="BackgroundImageFix"/>
<feColorMatrix in="SourceAlpha" type="matrix" values="0 0 0 0 0 0 0 0 0 0 0 0 0 0 0 0 0 0 127 0" result="hardAlpha"/>
<feOffset/>
<feGaussianBlur stdDeviation="14"/>
<feComposite in2="hardAlpha" operator="out"/>
<feColorMatrix type="matrix" values="0 0 0 0 0 0 0 0 0 0 0 0 0 0 0 0 0 0 0.53 0"/>
<feBlend mode="normal" in2="BackgroundImageFix" result="effect1_dropShadow_2_6"/>
<feBlend mode="normal" in="SourceGraphic" in2="effect1_dropShadow_2_6" result="shape"/>
</filter>
</defs>
</svg>
