<svg width="34" height="25" viewBox="0 0 34 25" fill="none" xmlns="http://www.w3.org/2000/svg">
<path d="M29.0001 5.29499C27.9955 5.7032 26.9163 5.97901 25.7817 6.10368C26.9524 5.46136 27.8282 4.45041 28.2457 3.25949C27.1459 3.85854 25.9421 4.28021 24.6869 4.50617C23.8427 3.67968 22.7246 3.13187 21.5062 2.94779C20.2877 2.76371 19.0371 2.95365 17.9484 3.48814C16.8598 4.02262 15.994 4.87174 15.4855 5.90366C14.9771 6.93558 14.8544 8.09257 15.1365 9.195C12.9079 9.0924 10.7277 8.56124 8.73753 7.636C6.74731 6.71076 4.9915 5.41212 3.58403 3.82435C3.10278 4.5856 2.82606 5.4682 2.82606 6.40818C2.82552 7.25437 3.05277 8.0876 3.48763 8.83394C3.9225 9.58028 4.55154 10.2167 5.31894 10.6866C4.42896 10.6606 3.55861 10.4401 2.78034 10.0434V10.1096C2.78025 11.2964 3.22794 12.4467 4.04745 13.3653C4.86696 14.2839 6.00781 14.9142 7.27642 15.1493C6.45082 15.3542 5.58523 15.3843 4.74505 15.2375C5.10297 16.2587 5.80018 17.1517 6.73907 17.7915C7.67795 18.4313 8.81151 18.7858 9.98105 18.8055C7.99569 20.2346 5.54379 21.0099 3.01976 21.0065C2.57266 21.0066 2.12593 20.9826 1.68188 20.9347C4.24391 22.4453 7.2263 23.247 10.2722 23.2439C20.583 23.2439 26.2197 15.413 26.2197 8.62131C26.2197 8.40066 26.2136 8.1778 26.2028 7.95715C27.2992 7.23008 28.2456 6.32973 28.9977 5.2983L29.0001 5.29499Z" fill="#8E8585"/>
<path d="M31.1362 3.62283L29.6028 5.73297L29.6004 5.73628L29.5997 5.73725C28.8748 6.73134 27.9835 7.60906 26.9617 8.33909C26.9637 8.43313 26.9647 8.52731 26.9647 8.62131C26.9647 15.7964 21.0219 23.9889 10.2722 23.9889M31.1362 3.62283L3.01995 21.7515C3.01955 21.7515 3.01915 21.7515 3.01876 21.7515C2.54534 21.7516 2.07228 21.7262 1.60201 21.6755L1.68188 20.9347L2.06028 20.293C2.37365 20.4777 2.6937 20.6514 3.01971 20.8138C3.01982 20.8139 3.01992 20.8139 3.02002 20.814C3.14858 20.878 3.27806 20.9403 3.40843 21.0008C5.37961 20.941 7.29406 20.407 8.962 19.4589C8.59167 19.3974 8.22809 19.3055 7.87558 19.1845M31.1362 3.62283L28.7196 4.60476C28.5908 4.65708 28.4607 4.70709 28.3293 4.75475C28.5852 4.36609 28.794 3.94761 28.9488 3.50599L29.5893 1.67931L27.8894 2.6052C26.9654 3.10847 25.9612 3.47878 24.9124 3.70262C23.9946 2.91447 22.8476 2.39694 21.6175 2.21111C20.2516 2.00475 18.8473 2.21685 17.6201 2.81935C16.3923 3.42214 15.4025 4.38649 14.8172 5.57436C14.3823 6.45709 14.1913 7.42227 14.2552 8.38317M31.1362 3.62283L14.2552 8.38317M10.2722 23.9889V23.2439L10.273 23.9889C10.2727 23.9889 10.2725 23.9889 10.2722 23.9889ZM10.2722 23.9889C7.09659 23.992 3.98304 23.1564 1.30349 21.5765L1.76175 20.194C2.17918 20.239 2.59918 20.2615 3.01958 20.2614H3.02077C4.7229 20.2637 6.38664 19.8891 7.87558 19.1845M7.87558 19.1845C7.32432 18.9953 6.80013 18.7347 6.31953 18.4072C5.25611 17.6825 4.45526 16.6632 4.04194 15.484L3.62167 14.2849L3.97693 14.347C3.80627 14.1944 3.64414 14.0324 3.4915 13.8613C2.55518 12.8118 2.03521 11.4867 2.0353 10.1096C2.0353 10.1096 2.0353 10.1096 2.0353 10.1095V10.0434V8.82738L2.86956 9.25263C2.86094 9.23814 2.85238 9.2236 2.84389 9.20903C2.34413 8.3513 2.08048 7.389 2.08102 6.40818L5.0627 15.1262L4.74505 15.2375L4.6168 15.9715C4.78052 16.0001 4.9451 16.0227 5.11015 16.0393C5.49985 16.7255 6.05538 17.3256 6.73907 17.7915C7.36406 18.2174 8.07531 18.5169 8.82602 18.6753C8.51852 18.8605 8.20123 19.0304 7.87558 19.1845ZM14.2552 8.38317C12.4425 8.19878 10.6795 7.7172 9.05161 6.96039C7.15087 6.07675 5.47883 4.83872 4.14155 3.33014L3.48399 2.58833L2.95428 3.42623C2.40238 4.29922 2.08111 5.31862 2.08102 6.40771C2.08102 6.40778 2.08102 6.40786 2.08102 6.40794L14.2552 8.38317ZM4.04745 13.3653C4.48834 13.8595 5.02222 14.2702 5.61897 14.5809L3.43374 10.0434H2.78034L2.7466 10.1096L2.44199 10.7072C2.57456 10.7748 2.70941 10.8378 2.84627 10.8962C2.99847 11.798 3.41073 12.6516 4.04745 13.3653ZM3.53344 10.3627C3.52891 10.2918 3.52629 10.2207 3.52558 10.1494C3.61746 10.253 3.71305 10.3536 3.81218 10.4509C3.71847 10.4238 3.62553 10.3944 3.53344 10.3627ZM3.48763 8.83394C3.68676 9.17569 3.9266 9.49439 4.20179 9.7846L2.82606 6.40818C2.82552 7.25437 3.05277 8.0876 3.48763 8.83394Z" stroke="black" stroke-opacity="0.25" stroke-width="1.49008"/>
</svg>
