<svg width="44" height="33" viewBox="0 0 44 33" fill="none" xmlns="http://www.w3.org/2000/svg">
<path d="M44 4.10519C42.4099 4.75131 40.7017 5.18787 38.9059 5.3852C40.7588 4.36851 42.1451 2.76838 42.806 0.883355C41.0651 1.83155 39.1599 2.49898 37.173 2.85662C35.8369 1.54844 34.0671 0.681359 32.1385 0.389993C30.21 0.0986265 28.2304 0.399278 26.5073 1.24527C24.7841 2.09126 23.4138 3.43526 22.6089 5.06861C21.8041 6.70195 21.6099 8.53326 22.0564 10.2782C18.529 10.1158 15.0782 9.27506 11.9281 7.81058C8.77791 6.34609 5.99877 4.29058 3.771 1.77744C3.00927 2.98235 2.57127 4.37935 2.57127 5.86716C2.57042 7.20653 2.93011 8.52538 3.61842 9.70671C4.30674 10.888 5.30239 11.8953 6.51705 12.6391C5.10837 12.598 3.73077 12.249 2.49891 11.6211V11.7258C2.49877 13.6044 3.20738 15.4251 4.50452 16.879C5.80165 18.333 7.60741 19.3307 9.61539 19.7027C8.30861 20.027 6.93855 20.0748 5.60868 19.8424C6.17521 21.4588 7.27877 22.8722 8.76486 23.8849C10.2509 24.8975 12.0452 25.4587 13.8963 25.4898C10.7539 27.7519 6.87294 28.979 2.87787 28.9736C2.17018 28.9738 1.4631 28.9359 0.760254 28.8601C4.81548 31.251 9.53606 32.5199 14.3572 32.515C30.6773 32.515 39.5991 20.1201 39.5991 9.37015C39.5991 9.0209 39.5896 8.66815 39.5724 8.3189C41.3078 7.16808 42.8058 5.743 43.9962 4.11043L44 4.10519Z" fill="#E38E74"/>
</svg>
