<svg width="34" height="25" viewBox="0 0 34 25" fill="none" xmlns="http://www.w3.org/2000/svg">
<path d="M29.0001 5.29499C27.9955 5.7032 26.9163 5.97901 25.7817 6.10368C26.9524 5.46136 27.8282 4.45041 28.2457 3.25949C27.1459 3.85854 25.9422 4.28021 24.6869 4.50617C23.8427 3.67968 22.7246 3.13187 21.5062 2.94779C20.2877 2.76371 19.0371 2.95365 17.9484 3.48814C16.8598 4.02262 15.994 4.87174 15.4855 5.90366C14.9771 6.93559 14.8544 8.09257 15.1365 9.195C12.9079 9.0924 10.7277 8.56124 8.73753 7.636C6.74731 6.71076 4.9915 5.41212 3.58403 3.82435C3.10278 4.5856 2.82606 5.4682 2.82606 6.40818C2.82552 7.25437 3.05277 8.0876 3.48763 8.83394C3.9225 9.58028 4.55154 10.2167 5.31894 10.6866C4.42896 10.6606 3.55861 10.4401 2.78034 10.0434V10.1096C2.78025 11.2964 3.22794 12.4467 4.04745 13.3653C4.86696 14.2839 6.00781 14.9142 7.27642 15.1493C6.45082 15.3542 5.58523 15.3843 4.74505 15.2375C5.10297 16.2587 5.80018 17.1517 6.73907 17.7915C7.67795 18.4313 8.81151 18.7858 9.98105 18.8055C7.99569 20.2346 5.54379 21.0099 3.01976 21.0065C2.57266 21.0066 2.12593 20.9826 1.68188 20.9347C4.24391 22.4453 7.2263 23.247 10.2722 23.2439C20.583 23.2439 26.2197 15.413 26.2197 8.62131C26.2197 8.40066 26.2136 8.1778 26.2028 7.95715C27.2992 7.23008 28.2456 6.32973 28.9977 5.2983L29.0001 5.29499Z" fill="#970000"/>
<path d="M31.1362 3.62281L29.6028 5.73298L29.6004 5.73629L29.5997 5.73725C28.8748 6.73134 27.9835 7.60906 26.9617 8.33909C26.9637 8.43313 26.9647 8.52731 26.9647 8.62131C26.9647 15.7963 21.0222 23.9885 10.273 23.9889C10.2727 23.9889 10.2725 23.9889 10.2722 23.9889V23.2439C7.83087 23.2464 5.43035 22.7318 3.25436 21.7497L31.1362 3.62281ZM31.1362 3.62281L28.7196 4.60476C28.5908 4.65708 28.4607 4.70709 28.3293 4.75475M31.1362 3.62281L28.3293 4.75475M28.3293 4.75475C28.5852 4.36609 28.794 3.94761 28.9488 3.506L29.5893 1.67931L27.8894 2.6052C26.9654 3.10847 25.9612 3.47878 24.9124 3.70262C23.9946 2.91447 22.8476 2.39694 21.6175 2.21111C20.2516 2.00475 18.8473 2.21685 17.6201 2.81935C16.3923 3.42214 15.4025 4.38649 14.8172 5.57436C14.3823 6.45709 14.1913 7.42227 14.2552 8.38317C12.4425 8.19878 10.6795 7.7172 9.05161 6.96039C7.15087 6.07675 5.47883 4.83872 4.14155 3.33014L3.48399 2.58833L2.95428 3.42623C2.40238 4.29922 2.08111 5.31862 2.08102 6.40771C2.08102 6.40778 2.08102 6.40786 2.08102 6.40794L28.3293 4.75475ZM2.08102 6.40818C2.08048 7.389 2.34413 8.3513 2.84389 9.20903C2.85238 9.2236 2.86094 9.23814 2.86956 9.25263L2.0353 8.82738V10.0434V10.1095C2.0353 10.1096 2.0353 10.1096 2.0353 10.1096C2.03521 11.4867 2.55518 12.8118 3.4915 13.8613C3.64414 14.0324 3.80627 14.1944 3.97693 14.347L3.62167 14.2849L4.04194 15.484C4.45526 16.6632 5.25611 17.6825 6.31953 18.4072C6.80013 18.7347 7.32432 18.9953 7.87558 19.1845L2.08102 6.40818Z" stroke="black" stroke-opacity="0.25" stroke-width="1.49008"/>
</svg>
