<svg width="30" height="30" viewBox="0 0 30 30" fill="none" xmlns="http://www.w3.org/2000/svg">
<path d="M27.9375 0.9375H2.0625C1.44023 0.9375 0.9375 1.44023 0.9375 2.0625V27.9375C0.9375 28.5598 1.44023 29.0625 2.0625 29.0625H27.9375C28.5598 29.0625 29.0625 28.5598 29.0625 27.9375V2.0625C29.0625 1.44023 28.5598 0.9375 27.9375 0.9375ZM26.5312 17.25H15.5625V12.75H26.5312V17.25ZM26.5312 10.5H14.4375C13.8152 10.5 13.3125 11.0027 13.3125 11.625V18.375C13.3125 18.9973 13.8152 19.5 14.4375 19.5H26.5312V26.5312H3.46875V3.46875H26.5312V10.5Z" fill="#970000"/>
<path d="M27.9375 0.6875H2.0625C1.30216 0.6875 0.6875 1.30216 0.6875 2.0625V27.9375C0.6875 28.6978 1.30216 29.3125 2.0625 29.3125H27.9375C28.6978 29.3125 29.3125 28.6978 29.3125 27.9375V2.0625C29.3125 1.30216 28.6978 0.6875 27.9375 0.6875ZM26.2812 17H15.8125V13H26.2812V17ZM26.2812 10.25H14.4375C13.6772 10.25 13.0625 10.8647 13.0625 11.625V18.375C13.0625 19.1353 13.6772 19.75 14.4375 19.75H26.2812V26.2812H3.71875V3.71875H26.2812V10.25Z" stroke="black" stroke-opacity="0.25" stroke-width="0.5"/>
</svg>
