<?xml version="1.0" encoding="UTF-8"?><svg id="Layer_1" xmlns="http://www.w3.org/2000/svg" viewBox="0 0 397.35 342.42"><g><path d="M127.14,208.56l-13-14.09-13,14.09v28.18h-19.51v-35.22l32.51-35.22,32.51,35.22v140.9H81.63v-49.31l32.51-35.22h13v-49.31Zm0,112.72v-42.27h-6.5l-19.51,21.13v21.13h26.01Z" style="fill:#fff;"/><path d="M211.68,208.56l-13.01-14.09-13,14.09v28.18h-19.51v-35.22l32.51-35.22,32.51,35.22v140.9h-65.03v-49.31l32.51-35.22h13.01v-49.31Zm0,112.72v-42.27h-6.5l-19.51,21.13v21.13h26.01Z" style="fill:#fff;"/><path d="M296.21,208.56l-13-14.09-13,14.09v28.18h-19.51v-35.22l32.51-35.22,32.51,35.22v140.9h-65.03v-49.31l32.51-35.22h13v-49.31Zm0,112.72v-42.27h-6.5l-19.51,21.13v21.13h26.01Z" style="fill:#fff;"/></g><g><path d="M61.13,122.26l-30.56,30.56L0,122.26V18.34L18.34,0h24.45l18.34,18.34V122.26ZM42.79,18.34H18.34V116.15l12.23,12.23,12.23-12.23V18.34Z" style="fill:#fff;"/><path d="M110.03,18.34h-12.23v116.15l-18.34,18.34V0h30.56l9.17,9.17L128.37,0h12.23l18.34,18.34V152.82l-18.34-18.34V18.34h-12.23V152.82l-18.34-18.34V18.34Z" style="fill:#fff;"/><path d="M195.62,73.36v42.79l12.23,12.23,12.23-12.23v-24.45h18.34v30.56l-30.56,30.56-30.57-30.56V0h61.13V24.45l-18.34,18.34V18.34h-24.45V55.02h42.79l-24.45,24.45-6.11-6.11h-12.23Z" style="fill:#fff;"/><path d="M275.09,134.49l-18.34,18.34V0h42.79l18.34,18.34V152.82l-18.34-18.34V18.34h-24.45v116.15Z" style="fill:#fff;"/><path d="M336.22,0h61.13V24.45l-18.34,18.34V18.34h-24.45V55.02h42.79V122.26l-30.56,30.56-30.57-30.56v-30.56h18.34v24.45l12.23,12.23,12.23-12.23v-42.79h-42.79V0Z" style="fill:#fff;"/></g><line x1=".17" y1="158.82" x2="397.17" y2="158.82" style="fill:#fff; stroke:#fff; stroke-miterlimit:10; stroke-width:17.92px;"/></svg>